HIERARCHY
ROOT Hips
{
	OFFSET -0.001795 -0.223333 0.028219
	CHANNELS 6 Xposition Yposition Zposition Zrotation Yrotation Xrotation
	JOINT LeftUpLeg
	{
		OFFSET 0.069520 -0.091406 -0.006815
		CHANNELS 3 Zrotation Yrotation Xrotation
		JOINT LeftLeg
		{
			OFFSET 0.034277 -0.375199 -0.004496
			CHANNELS 3 Zrotation Yrotation Xrotation
			JOINT LeftFoot
			{
				OFFSET -0.013596 -0.397961 -0.043693
				CHANNELS 3 Zrotation Yrotation Xrotation
				JOINT LeftToe
				{
					OFFSET 0.026358 -0.055791 0.119288
					CHANNELS 3 Zrotation Yrotation Xrotation
					End Site
					{
						OFFSET 0.000000 0.000000 0.000000
					}
				}
			}
		}
	}
	JOINT RightUpLeg
	{
		OFFSET -0.067670 -0.090522 -0.004320
		CHANNELS 3 Zrotation Yrotation Xrotation
		JOINT RightLeg
		{
			OFFSET -0.038290 -0.382569 -0.008850
			CHANNELS 3 Zrotation Yrotation Xrotation
			JOINT RightFoot
			{
				OFFSET 0.015774 -0.398415 -0.042312
				CHANNELS 3 Zrotation Yrotation Xrotation
				JOINT RightToe
				{
					OFFSET -0.025372 -0.048144 0.123348
					CHANNELS 3 Zrotation Yrotation Xrotation
					End Site
					{
						OFFSET 0.000000 0.000000 0.000000
					}
				}
			}
		}
	}
	JOINT Spine
	{
		OFFSET -0.002533 0.108963 -0.026696
		CHANNELS 3 Zrotation Yrotation Xrotation
		JOINT Spine1
		{
			OFFSET 0.005487 0.135180 0.001092
			CHANNELS 3 Zrotation Yrotation Xrotation
			JOINT Spine2
			{
				OFFSET 0.001457 0.052922 0.025425
				CHANNELS 3 Zrotation Yrotation Xrotation
				JOINT Neck
				{
					OFFSET -0.002778 0.213870 -0.042857
					CHANNELS 3 Zrotation Yrotation Xrotation
					JOINT Head
					{
						OFFSET 0.005152 0.064970 0.051349
						CHANNELS 3 Zrotation Yrotation Xrotation
						End Site
						{
							OFFSET 0.000000 0.000000 0.000000
						}
					}
				}
				JOINT LeftShoulder
				{
					OFFSET 0.078845 0.121749 -0.034090
					CHANNELS 3 Zrotation Yrotation Xrotation
					JOINT LeftArm
					{
						OFFSET 0.090977 0.030469 -0.008868
						CHANNELS 3 Zrotation Yrotation Xrotation
						JOINT LeftForeArm
						{
							OFFSET 0.259612 -0.012772 -0.027456
							CHANNELS 3 Zrotation Yrotation Xrotation
							JOINT LeftHand
							{
								OFFSET 0.249234 0.008986 -0.001171
								CHANNELS 3 Zrotation Yrotation Xrotation
								End Site
								{
									OFFSET 0.000000 0.000000 0.000000
								}
							}
						}
					}
				}
				JOINT RightShoulder
				{
					OFFSET -0.081759 0.118833 -0.038615
					CHANNELS 3 Zrotation Yrotation Xrotation
					JOINT RightArm
					{
						OFFSET -0.096012 0.032551 -0.009143
						CHANNELS 3 Zrotation Yrotation Xrotation
						JOINT RightForeArm
						{
							OFFSET -0.253742 -0.013329 -0.021401
							CHANNELS 3 Zrotation Yrotation Xrotation
							JOINT RightHand
							{
								OFFSET -0.255298 0.007772 -0.005559
								CHANNELS 3 Zrotation Yrotation Xrotation
								End Site
								{
									OFFSET 0.000000 0.000000 0.000000
								}
							}
						}
					}
				}
			}
		}
	}
}
MOTION
Frames: 7
Frame Time: 0.050000
0.000000 1.163202 0.000000 1.036460 0.656137 -14.288061 7.780052 -0.074350 -6.510923 -5.688228 0.953287 26.887697 1.534347 5.493906 6.137551 0.000000 0.000000 0.000000 -4.399475 -0.587524 9.410169 -0.017685 0.396428 9.794763 2.071008 -3.468598 18.486680 0.000000 0.000000 0.000000 -7.116034 0.647336 38.596092 24.714416 -3.192321 -41.367542 -12.117977 17.501500 25.355873 0.549793 -2.389509 12.065934 0.000000 0.000000 0.000000 -40.250819 -8.222561 -7.239136 -26.883641 5.186130 -3.577210 -15.240658 -26.929571 4.267679 0.000000 0.000000 0.000000 47.489632 8.179752 15.298725 26.618028 2.379539 -6.192878 -1.071630 33.457770 0.755221 0.000000 0.000000 0.000000
-0.000195 1.169460 0.002016 0.611335 0.714549 -13.995385 8.369422 -0.094338 -9.176562 -6.077653 1.156592 33.748701 2.307702 5.186447 0.943076 0.000000 0.000000 0.000000 -5.334806 -0.433612 7.849998 1.157015 0.231386 12.080746 1.931794 -2.864548 16.116968 0.000000 0.000000 0.000000 -8.716658 1.242976 41.542355 33.705205 -0.605343 -52.894558 -12.832311 24.364883 38.619376 3.293941 -0.687235 1.351625 0.000000 0.000000 0.000000 -38.892207 -9.202947 -8.353921 -29.410398 4.110976 -4.221857 -16.637388 -28.088239 4.775091 0.000000 0.000000 0.000000 46.001745 7.812117 19.082683 27.857547 6.319833 -7.507449 -4.032252 33.356876 -0.004546 0.000000 0.000000 0.000000
0.000648 1.174950 0.003241 0.431102 1.001353 -13.662973 8.514556 -0.149299 -11.560592 -6.195441 1.219150 39.690709 2.468870 4.413436 -2.004604 0.000000 0.000000 0.000000 -5.688718 -0.300225 5.632440 1.727034 0.173605 15.188400 -0.022200 -5.800454 14.537617 0.000000 0.000000 0.000000 -8.127733 0.984351 40.865538 37.101159 -2.699479 -48.496096 -18.133307 27.465914 31.502741 3.567237 -3.359121 6.507740 0.000000 0.000000 0.000000 -36.936167 -9.725276 -10.396946 -29.125551 7.234685 -3.944576 -18.429589 -28.148063 4.950755 0.000000 0.000000 0.000000 49.099392 8.800900 22.538240 26.080180 5.171137 -7.078228 -6.404342 31.131193 -1.138927 0.000000 0.000000 0.000000
0.002193 1.179664 0.004040 0.758863 1.354752 -14.273161 8.081617 -0.217042 -12.154358 -5.549378 0.840053 43.272539 3.213814 4.495788 -5.945449 0.000000 0.000000 0.000000 -6.438815 -0.263817 5.324651 1.461252 0.313126 18.398524 -0.166003 -5.319400 12.215220 0.000000 0.000000 0.000000 -8.602489 1.154459 42.078207 43.055943 0.096394 -56.626691 -20.328416 32.104047 41.592223 5.712915 -0.828289 -1.684277 0.000000 0.000000 0.000000 -35.906475 -9.562178 -11.503738 -29.627856 5.427732 -4.240643 -19.704187 -29.963026 5.547998 0.000000 0.000000 0.000000 47.971972 10.249342 25.748484 25.943355 7.765871 -7.570852 -8.642077 29.895467 -1.882483 0.000000 0.000000 0.000000
0.004086 1.179601 0.003485 0.576079 1.557452 -14.417842 7.945157 -0.258671 -12.900461 -5.917296 0.982115 46.620556 4.106161 6.153483 -7.146729 0.000000 0.000000 0.000000 -6.165419 -0.226718 4.145520 0.845504 0.546002 20.790637 0.120218 -5.569579 14.867728 0.000000 0.000000 0.000000 -8.153159 0.967371 42.451334 47.189958 -0.906339 -55.022692 -24.077754 35.662889 35.965403 5.559928 -0.345558 -1.765835 0.000000 0.000000 0.000000 -34.379334 -9.857669 -13.898387 -29.566351 8.628576 -4.022009 -22.076404 -30.114631 5.871390 0.000000 0.000000 0.000000 47.009387 9.195759 26.756876 27.830403 7.372836 -7.973719 -8.970352 29.794393 -2.008243 0.000000 0.000000 0.000000
0.005726 1.174842 0.000289 0.742553 2.715296 -15.410441 7.510439 -0.396475 -14.526717 -6.194158 0.804312 49.800122 4.398360 6.685356 -7.422146 0.000000 0.000000 0.000000 -6.048565 -0.237754 3.625178 -0.156882 0.879797 23.601331 0.763343 -4.814018 16.729871 0.000000 0.000000 0.000000 -8.619609 1.005490 44.588490 47.013263 0.794501 -58.787582 -21.537901 36.026456 41.704267 6.559560 1.474934 -7.053852 0.000000 0.000000 0.000000 -35.131706 -10.079193 -13.749674 -29.035619 8.547789 -4.264195 -21.889781 -31.345360 6.227388 0.000000 0.000000 0.000000 44.881814 8.713977 25.452537 28.447094 6.920852 -8.347201 -9.550661 31.049176 -2.149667 0.000000 0.000000 0.000000
0.006042 1.174368 -0.005768 0.756650 3.774562 -15.866865 7.398479 -0.434857 -14.310767 -6.258335 0.526484 49.422486 4.629641 6.710200 -8.569117 0.000000 0.000000 0.000000 -6.036887 -0.293861 4.209093 0.175777 0.694657 23.659825 0.369247 -5.449344 17.119829 0.000000 0.000000 0.000000 -8.640549 0.853286 45.844372 47.665674 1.885459 -61.638562 -20.999925 37.231757 44.781540 5.890478 2.555277 -6.481216 0.000000 0.000000 0.000000 -34.447170 -9.416358 -14.553778 -28.464696 7.702377 -4.200912 -21.761594 -33.113169 6.517163 0.000000 0.000000 0.000000 43.444793 8.120553 25.232668 28.997817 8.119828 -8.597668 -9.160526 31.243000 -1.989811 0.000000 0.000000 0.000000
